<svg xmlns="http://www.w3.org/2000/svg" viewBox="0 0 1024 1024" fill="none">
  <defs>
    <linearGradient id="bgGrad" x1="0" y1="0" x2="1024" y2="1024" gradientUnits="userSpaceOnUse">
      <stop offset="0%" stop-color="#1E3A5F"/>
      <stop offset="50%" stop-color="#0F1D33"/>
      <stop offset="100%" stop-color="#1A1040"/>
    </linearGradient>
    <linearGradient id="diamond" x1="512" y1="150" x2="512" y2="874" gradientUnits="userSpaceOnUse">
      <stop offset="0%" stop-color="#60A5FA"/>
      <stop offset="45%" stop-color="#3B82F6"/>
      <stop offset="75%" stop-color="#8B5CF6"/>
      <stop offset="100%" stop-color="#A78BFA"/>
    </linearGradient>
    <radialGradient id="glow" cx="0.5" cy="0.5" r="0.5">
      <stop offset="0%" stop-color="#8B5CF6" stop-opacity="0.25"/>
      <stop offset="100%" stop-color="#8B5CF6" stop-opacity="0"/>
    </radialGradient>
  </defs>

  <!-- 圆角方形背景 -->
  <rect x="0" y="0" width="1024" height="1024" rx="225" fill="url(#bgGrad)"/>

  <!-- 大光晕 -->
  <circle cx="512" cy="474" r="380" fill="url(#glow)"/>

  <!-- 中心菱形火花 -->
  <g transform="translate(512,474)">
    <!-- 外层光晕 -->
    <ellipse cx="0" cy="0" rx="300" ry="300" fill="#8B5CF6" opacity="0.06"/>
    <ellipse cx="0" cy="0" rx="210" ry="210" fill="#8B5CF6" opacity="0.10"/>
    <ellipse cx="0" cy="0" rx="140" ry="140" fill="#3B82F6" opacity="0.15"/>
    <!-- 菱形主体 -->
    <rect x="-130" y="-130" width="260" height="260" rx="56" fill="url(#diamond)" transform="rotate(45)"/>
    <!-- 内核高光 -->
    <circle cx="0" cy="0" r="40" fill="#FFFFFF" opacity="0.9"/>
  </g>

  <!-- 四角节点 -->
  <g fill="url(#diamond)" opacity="0.55">
    <!-- 左上 -->
    <circle cx="140" cy="140" r="26"/>
    <circle cx="96" cy="188" r="16"/>
    <circle cx="188" cy="96" r="16"/>
    <!-- 右上 -->
    <circle cx="884" cy="140" r="26"/>
    <circle cx="840" cy="188" r="16"/>
    <circle cx="928" cy="96" r="16"/>
    <!-- 左下 -->
    <circle cx="140" cy="884" r="26"/>
    <circle cx="96" cy="840" r="16"/>
    <circle cx="188" cy="928" r="16"/>
    <!-- 右下 -->
    <circle cx="884" cy="884" r="26"/>
    <circle cx="840" cy="840" r="16"/>
    <circle cx="928" cy="928" r="16"/>
  </g>

  <!-- 细连接线 -->
  <g stroke="url(#diamond)" stroke-width="2.5" stroke-linecap="round" fill="none" opacity="0.18">
    <line x1="140" y1="140" x2="430" y2="406"/>
    <line x1="884" y1="140" x2="594" y2="406"/>
    <line x1="140" y1="884" x2="430" y2="542"/>
    <line x1="884" y1="884" x2="594" y2="542"/>
  </g>
</svg>
