<svg xmlns="http://www.w3.org/2000/svg" viewBox="0 0 240 240" fill="none">
  <defs>
    <linearGradient id="gradM" x1="120" y1="0" x2="120" y2="240" gradientUnits="userSpaceOnUse">
      <stop offset="0%" stop-color="#60A5FA"/>
      <stop offset="45%" stop-color="#3B82F6"/>
      <stop offset="75%" stop-color="#8B5CF6"/>
      <stop offset="100%" stop-color="#A78BFA"/>
    </linearGradient>
    <radialGradient id="glowM" cx="0.5" cy="0.5" r="0.5">
      <stop offset="0%" stop-color="#8B5CF6" stop-opacity="0.25"/>
      <stop offset="100%" stop-color="#8B5CF6" stop-opacity="0"/>
    </radialGradient>
  </defs>

  <!-- 背景 -->
  <rect width="240" height="240" rx="52" fill="#0F1D33"/>

  <!-- 光晕 -->
  <circle cx="120" cy="114" r="98" fill="url(#glowM)"/>

  <!-- 中心菱形 -->
  <g transform="translate(120,114)">
    <ellipse cx="0" cy="0" rx="72" ry="72" fill="#8B5CF6" opacity="0.08"/>
    <ellipse cx="0" cy="0" rx="54" ry="54" fill="#3B82F6" opacity="0.12"/>
    <ellipse cx="0" cy="0" rx="38" ry="38" fill="#3B82F6" opacity="0.18"/>
    <rect x="-30" y="-30" width="60" height="60" rx="14" fill="url(#gradM)" transform="rotate(45)"/>
    <circle cx="0" cy="0" r="9" fill="#FFFFFF" opacity="0.9"/>
  </g>

  <!-- 四角节点 -->
  <g fill="url(#gradM)" opacity="0.55">
    <!-- 左上 -->
    <circle cx="28" cy="28" r="6"/>
    <circle cx="18" cy="40" r="4"/>
    <circle cx="40" cy="18" r="4"/>
    <!-- 右上 -->
    <circle cx="212" cy="28" r="6"/>
    <circle cx="200" cy="40" r="4"/>
    <circle cx="222" cy="18" r="4"/>
    <!-- 左下 -->
    <circle cx="28" cy="212" r="6"/>
    <circle cx="18" cy="200" r="4"/>
    <circle cx="40" cy="222" r="4"/>
    <!-- 右下 -->
    <circle cx="212" cy="212" r="6"/>
    <circle cx="200" cy="200" r="4"/>
    <circle cx="222" cy="222" r="4"/>
  </g>

  <!-- 连接线 -->
  <g stroke="url(#gradM)" stroke-width="1.2" stroke-linecap="round" fill="none" opacity="0.18">
    <line x1="28" y1="28" x2="104" y2="98"/>
    <line x1="212" y1="28" x2="136" y2="98"/>
    <line x1="28" y1="212" x2="104" y2="130"/>
    <line x1="212" y1="212" x2="136" y2="130"/>
  </g>
</svg>
