<svg width="64" height="64" viewBox="0 0 64 64" fill="none" xmlns="http://www.w3.org/2000/svg">
  <path d="M18 26C18 21.5817 21.5817 18 26 18H32C32.5523 18 33 17.5523 33 17V17C33 16.4477 32.5523 16 32 16H26C20.4772 16 16 20.4772 16 26V38C16 43.5228 20.4772 48 26 48H32C32.5523 48 33 47.5523 33 47V47C33 46.4477 32.5523 46 32 46H26C21.5817 46 18 42.4183 18 38V26Z" fill="#7C3AED" fill-opacity="0.15"/>
  <path d="M46 26C46 21.5817 42.4183 18 38 18H32C31.4477 18 31 18.4477 31 19V19C31 19.5523 31.4477 20 32 20H38C42.4183 20 46 23.5817 46 28V38C46 42.4183 42.4183 46 38 46H32C31.4477 46 31 46.4477 31 47V47C31 47.5523 31.4477 48 32 48H38C43.5228 48 48 43.5228 48 38V26Z" fill="#7C3AED" fill-opacity="0.15"/>
  <path d="M22 32L42 32" stroke="#7C3AED" stroke-width="3" stroke-linecap="round"/>
</svg>